<svg width="24" height="24" viewBox="0 0 24 24" fill="none" xmlns="http://www.w3.org/2000/svg">
<g clip-path="url(#clip0_208_2624)">
<g opacity="0.5" clip-path="url(#clip1_208_2624)">
<path d="M0.560087 13.2362C0.560087 12.7489 0.95513 12.3539 1.44244 12.3539H15.5601C16.0474 12.3539 16.4424 12.7489 16.4424 13.2362C16.4424 13.7235 16.0474 14.1186 15.5601 14.1186H1.44244C0.95513 14.1186 0.560087 13.7235 0.560087 13.2362ZM16.8916 3.99533C16.7725 3.63789 16.5164 3.34235 16.1795 3.17374C15.8426 3.00512 15.4525 2.97724 15.0951 3.09621L11.4747 4.30383C11.2635 4.37426 11.0346 4.37004 10.8262 4.29189L4.46258 1.90553C4.22468 1.81632 3.96037 1.83019 3.73311 1.94382C3.10558 2.25758 3.05113 3.1322 3.63489 3.52138L6.2261 5.24885C6.84672 5.66259 6.78883 6.59243 6.12169 6.926L4.52394 7.72488C4.25045 7.86162 3.92855 7.86162 3.65506 7.72488L1.02758 6.41114C0.748397 6.27154 0.411216 6.32626 0.190504 6.54697C-0.0926909 6.83017 -0.0926909 7.28932 0.190504 7.57251L2.76484 10.1469C3.03421 10.4162 3.43615 10.5033 3.79283 10.3695L16.0427 5.77592C16.3871 5.64663 16.668 5.38887 16.8263 5.05682C16.9846 4.72477 17.008 4.34428 16.8916 3.99533Z" fill="url(#paint0_linear_208_2624)"></path>
</g>
<path d="M22.4638 15.9415C22.3261 14.4074 22.1009 14.1085 22.0159 13.9959C21.8207 13.7367 21.508 13.5666 21.1767 13.3884C21.1581 13.3785 21.1419 13.3644 21.1296 13.3472C21.1173 13.33 21.1091 13.3102 21.1058 13.2893C21.1024 13.2684 21.1039 13.2471 21.1102 13.2269C21.1164 13.2067 21.1273 13.1882 21.1419 13.1729C21.1996 13.1145 21.2448 13.045 21.2748 12.9685C21.3047 12.892 21.3188 12.8103 21.3161 12.7282C21.3135 12.6462 21.2942 12.5655 21.2593 12.4911C21.2245 12.4168 21.1749 12.3503 21.1136 12.2957C20.9985 12.1915 20.8484 12.1346 20.6932 12.1361H20.1011C20.0756 12.1363 20.0502 12.1379 20.0249 12.141C20.0076 12.1335 19.9898 12.1276 19.9715 12.1232C19.6207 11.382 19.1404 10.3663 18.1449 9.87137C16.6683 9.1367 13.9483 9.09863 13.4169 9.09863C12.8848 9.09863 10.1648 9.1367 8.69059 9.86975C7.69429 10.3655 7.21477 11.3804 6.86404 12.1216L6.8608 12.128C6.84338 12.1305 6.82627 12.1349 6.80977 12.141C6.78451 12.1379 6.75908 12.1363 6.73363 12.1361H6.1399C5.98506 12.1349 5.83539 12.1917 5.72049 12.2955C5.60559 12.3993 5.53384 12.5425 5.51944 12.6967C5.51264 12.7835 5.52468 12.8708 5.55473 12.9526C5.58479 13.0344 5.63216 13.1087 5.69359 13.1705C5.70819 13.1858 5.71905 13.2043 5.72532 13.2245C5.73159 13.2446 5.7331 13.266 5.72973 13.2869C5.72635 13.3078 5.71819 13.3276 5.70588 13.3448C5.69356 13.3619 5.67744 13.3761 5.65876 13.386C5.32747 13.565 5.01319 13.7343 4.8196 13.9935C4.73455 14.1069 4.50937 14.4049 4.37248 15.9391C4.29634 16.8025 4.285 17.6968 4.34494 18.2719C4.46968 19.4683 4.70377 20.1916 4.71349 20.2207C4.74945 20.3301 4.81575 20.427 4.90466 20.5001C4.99358 20.5733 5.10144 20.6196 5.21569 20.6338V20.6411C5.21569 20.8023 5.27969 20.9568 5.39362 21.0707C5.50755 21.1846 5.66207 21.2486 5.82319 21.2486H7.94863C8.10975 21.2486 8.26427 21.1846 8.3782 21.0707C8.49213 20.9568 8.55613 20.8023 8.55613 20.6411C8.88337 20.6411 9.11098 20.5828 9.35155 20.5196C9.69992 20.4265 10.0558 20.3642 10.4151 20.3333C11.4128 20.24 12.4141 20.1909 13.4161 20.1859C14.0933 20.1859 15.2953 20.224 16.4561 20.335C16.8173 20.3649 17.1745 20.4273 17.5236 20.5213C17.7545 20.5812 17.974 20.6363 18.2769 20.6419C18.2769 20.8031 18.3409 20.9576 18.4549 21.0715C18.5688 21.1854 18.7233 21.2494 18.8844 21.2494H21.0107C21.1718 21.2494 21.3263 21.1854 21.4403 21.0715C21.5542 20.9576 21.6182 20.8031 21.6182 20.6419V20.6371C21.7324 20.6229 21.8403 20.5765 21.9292 20.5034C22.0181 20.4302 22.0844 20.3334 22.1204 20.224C22.1309 20.194 22.365 19.4707 22.4897 18.2751C22.5497 17.7 22.5383 16.8074 22.4622 15.9423L22.4638 15.9415ZM7.96078 12.6416C8.26453 11.996 8.61202 11.2654 9.23086 10.9576C10.1243 10.5121 11.9768 10.312 13.4161 10.312C14.8547 10.312 16.7072 10.5113 17.6014 10.9576C18.2194 11.2654 18.5653 11.9968 18.8707 12.6416L18.9087 12.7242C18.9307 12.7711 18.9402 12.8229 18.9366 12.8745C18.9329 12.9262 18.9162 12.9761 18.8879 13.0195C18.8596 13.0628 18.8207 13.0983 18.7749 13.1224C18.729 13.1466 18.6778 13.1587 18.626 13.1575C17.3649 13.1235 14.7065 13.0142 13.4161 13.0142C12.125 13.0142 9.46738 13.126 8.20378 13.16C8.15185 13.1615 8.1004 13.1497 8.05435 13.1256C8.0083 13.1016 7.96919 13.0661 7.94075 13.0226C7.9123 12.9792 7.89549 12.9291 7.89191 12.8773C7.88832 12.8255 7.89809 12.7736 7.92028 12.7266C7.93405 12.6983 7.94863 12.6699 7.96078 12.6416ZM8.41438 15.6653C7.76071 15.7439 7.1038 15.7828 6.44608 15.7811C6.04351 15.7811 5.62798 15.6677 5.55103 15.3089C5.49838 15.0675 5.50405 14.9323 5.5324 14.7962C5.5567 14.6803 5.59396 14.5961 5.7835 14.5661C6.2776 14.49 6.55381 14.5856 7.36138 14.8237C7.8976 14.9809 8.28478 15.1915 8.50429 15.3575C8.61445 15.4393 8.55694 15.6532 8.41438 15.6653ZM16.8197 18.7781C16.32 18.8348 15.3204 18.8146 13.4275 18.8146C11.5345 18.8146 10.5358 18.8356 10.0352 18.7781C9.52003 18.7214 8.86231 18.2338 9.31186 17.7988C9.60994 17.5129 10.3073 17.2991 11.2356 17.1784C12.1639 17.0577 12.5567 16.9961 13.4234 16.9961C14.2901 16.9961 14.6433 17.0342 15.6112 17.1792C16.5792 17.3234 17.3114 17.5405 17.5358 17.7997C17.9448 18.2646 17.3349 18.7182 16.8197 18.7806V18.7781ZM21.2804 15.3081C21.2051 15.6685 20.7871 15.7803 20.3862 15.7803C19.7155 15.7803 19.0456 15.7423 18.3798 15.6645C18.264 15.6532 18.2097 15.4498 18.3272 15.3567C18.5442 15.1866 18.9347 14.9809 19.4693 14.8229C20.2776 14.5848 20.7442 14.49 21.1443 14.5694C21.2415 14.5888 21.2934 14.6933 21.299 14.7589C21.3261 14.9419 21.3198 15.1274 21.2804 15.3081Z" fill="url(#paint1_linear_208_2624)"></path>
</g>
<defs>
<linearGradient id="paint0_linear_208_2624" x1="0.0234717" y1="-1.85506" x2="20.5575" y2="-1.17789" gradientUnits="userSpaceOnUse">
<stop stop-color="#41668B"></stop>
<stop offset="1" stop-color="#A5BDD5"></stop>
</linearGradient>
<linearGradient id="paint1_linear_208_2624" x1="4.67107" y1="5.53719" x2="26.3117" y2="6.30195" gradientUnits="userSpaceOnUse">
<stop stop-color="#41668B"></stop>
<stop offset="1" stop-color="#A5BDD5"></stop>
</linearGradient>
<clipPath id="clip0_208_2624">
<rect width="24" height="24" fill="white"></rect>
</clipPath>
<clipPath id="clip1_208_2624">
<rect width="21.1765" height="13.4118" fill="white" transform="translate(-2.08789 -2.11719)"></rect>
</clipPath>
</defs>
</svg>