<svg width="24" height="24" viewBox="0 0 24 24" fill="none" xmlns="http://www.w3.org/2000/svg">
<path d="M3.414 13.7801L2 15.1941L6.949 17.3151L9.071 22.2651L10.485 20.8511L9.778 17.3151L13.091 14.0021L16.701 21.7061L18.04 20.3671L16.85 10.2441L19.678 7.41514C19.869 7.23065 20.0214 7.00996 20.1262 6.76595C20.231 6.52194 20.2862 6.2595 20.2885 5.99394C20.2908 5.72838 20.2402 5.46502 20.1396 5.21923C20.0391 4.97344 19.8906 4.75013 19.7028 4.56235C19.515 4.37456 19.2917 4.22606 19.0459 4.1255C18.8001 4.02493 18.5368 3.97433 18.2712 3.97664C18.0056 3.97895 17.7432 4.03412 17.4992 4.13894C17.2552 4.24375 17.0345 4.39612 16.85 4.58714L13.947 7.49014L3.824 6.30014L2.559 7.56414L10.203 11.2341L6.95 14.4871L3.414 13.7801Z" fill="url(#paint0_linear_208_2595)"></path>
<defs>
<linearGradient id="paint0_linear_208_2595" x1="2.36577" y1="-1.38388" x2="24.1012" y2="-0.871671" gradientUnits="userSpaceOnUse">
<stop stop-color="#41668B"></stop>
<stop offset="1" stop-color="#A5BDD5"></stop>
</linearGradient>
</defs>
</svg>