<svg width="24" height="24" viewBox="0 0 24 24" fill="none" xmlns="http://www.w3.org/2000/svg">
<path d="M20.25 10.814C19.7772 10.6065 19.2664 10.4995 18.75 10.5H5.25C4.25576 10.5011 3.30255 10.8965 2.59952 11.5995C1.89649 12.3026 1.50106 13.2558 1.5 14.25V19.5C1.5 19.6989 1.57902 19.8897 1.71967 20.0303C1.86032 20.171 2.05109 20.25 2.25 20.25C2.44891 20.25 2.63968 20.171 2.78033 20.0303C2.92098 19.8897 3 19.6989 3 19.5V19.125C3.00129 19.0259 3.04122 18.9313 3.11127 18.8613C3.18131 18.7912 3.27595 18.7513 3.375 18.75H20.625C20.7241 18.7513 20.8187 18.7912 20.8887 18.8613C20.9588 18.9313 20.9987 19.0259 21 19.125V19.5C21 19.6989 21.079 19.8897 21.2197 20.0303C21.3603 20.171 21.5511 20.25 21.75 20.25C21.9489 20.25 22.1397 20.171 22.2803 20.0303C22.421 19.8897 22.5 19.6989 22.5 19.5V14.25C22.4993 13.5206 22.2861 12.8072 21.8866 12.197C21.487 11.5868 20.9183 11.1062 20.25 10.814Z" fill="url(#paint0_linear_208_2602)"></path>
<path d="M17.625 3.75H6.375C5.67881 3.75 5.01113 4.02656 4.51885 4.51884C4.02656 5.01113 3.75 5.67881 3.75 6.375V9.75C3.7499 9.77914 3.75661 9.80791 3.76959 9.834C3.78258 9.86009 3.80149 9.88278 3.8248 9.90027C3.84811 9.91775 3.87519 9.92955 3.90388 9.93471C3.93256 9.93987 3.96205 9.93826 3.99 9.93C4.399 9.81 4.823 9.75 5.25 9.75H5.448C5.49427 9.75032 5.53904 9.73356 5.57373 9.70293C5.60841 9.6723 5.63059 9.62996 5.636 9.584C5.67681 9.21749 5.85121 8.87886 6.12587 8.63278C6.40054 8.38671 6.75623 8.25044 7.125 8.25H9.75C10.1189 8.25019 10.4749 8.38635 10.7498 8.63245C11.0246 8.87855 11.1992 9.21732 11.24 9.584C11.2454 9.62996 11.2676 9.6723 11.3023 9.70293C11.337 9.73356 11.3817 9.75032 11.428 9.75H12.575C12.6212 9.75029 12.6658 9.7335 12.7003 9.70285C12.7349 9.6722 12.7568 9.62987 12.762 9.584C12.8028 9.21766 12.977 8.87917 13.2515 8.63312C13.526 8.38707 13.8814 8.25068 14.25 8.25H16.875C17.2439 8.25019 17.5999 8.38635 17.8748 8.63245C18.1496 8.87855 18.3242 9.21732 18.365 9.584C18.3704 9.62996 18.3926 9.6723 18.4273 9.70293C18.462 9.73356 18.5067 9.75032 18.553 9.75H18.75C19.177 9.75 19.601 9.81 20.01 9.93C20.0379 9.93804 20.0674 9.93949 20.096 9.93424C20.1246 9.92899 20.1515 9.91718 20.1748 9.89973C20.1981 9.88229 20.217 9.85969 20.23 9.83371C20.2431 9.80773 20.2499 9.77907 20.25 9.75V6.375C20.25 5.67881 19.9734 5.01113 19.4812 4.51884C18.9889 4.02656 18.3212 3.75 17.625 3.75Z" fill="url(#paint1_linear_208_2602)"></path>
<defs>
<linearGradient id="paint0_linear_208_2602" x1="1.92" y1="7.64224" x2="26.8276" y2="8.90647" gradientUnits="userSpaceOnUse">
<stop stop-color="#41668B"></stop>
<stop offset="1" stop-color="#A5BDD5"></stop>
</linearGradient>
<linearGradient id="paint1_linear_208_2602" x1="4.08" y1="1.93637" x2="23.6235" y2="3.16449" gradientUnits="userSpaceOnUse">
<stop stop-color="#41668B"></stop>
<stop offset="1" stop-color="#A5BDD5"></stop>
</linearGradient>
</defs>
</svg>