<svg width="24" height="24" viewBox="0 0 24 24" fill="none" xmlns="http://www.w3.org/2000/svg">
<path fill-rule="evenodd" clip-rule="evenodd" d="M4.34388 3.71877C6.21098 2.43283 8.40417 1.7021 10.6694 1.61121C12.9347 1.52032 15.1794 2.07299 17.1435 3.20521C19.1077 4.33744 20.7109 6.00289 21.7675 8.0087C22.8241 10.0145 23.2909 12.2786 23.1139 14.5388C23.108 14.6541 23.0785 14.7834 23.0722 14.8043C22.5513 15.7514 18.3542 14.2627 13.477 11.5369L10.9179 16.0004H8.5974L11.7554 10.5387C7.00747 7.68184 3.68538 4.78276 4.19388 3.87877C4.23475 3.81756 4.28543 3.7635 4.34388 3.71877ZM13.5039 9.52877C14.9432 10.3718 16.4289 11.133 17.9539 11.8088C18.8239 8.50877 18.4839 5.29877 16.5739 4.19877C14.6639 3.09877 11.7139 4.40877 9.29388 6.80877C10.6485 7.78865 12.0538 8.69658 13.5039 9.52877ZM22.84 6.88846C22.8382 6.91509 22.8382 6.94182 22.84 6.96846C22.8418 6.94182 22.8418 6.91509 22.84 6.88846ZM5 12.9984L8 16.9984H17C17.5304 16.9984 18.0391 17.2092 18.4142 17.5842C18.7893 17.9593 19 18.468 19 18.9984V21.9984H17L15 19.9984H6L4 21.9984H2L4 18.6284L0 12.9984H5Z" fill="white"></path>
</svg>