<svg width="24" height="24" viewBox="0 0 24 24" fill="none" xmlns="http://www.w3.org/2000/svg">
<g clip-path="url(#clip0_208_2633)">
<path d="M1.76607 16.4026H2.82166C2.78106 16.1868 2.74723 15.9637 2.74723 15.7263C2.74723 14.1796 3.89755 12.9638 5.34559 12.9638C6.80038 12.9638 7.94395 14.1796 7.94395 15.7263C7.94395 15.9637 7.91687 16.1868 7.86952 16.4026H16.4901C16.4495 16.1868 16.4157 15.9637 16.4157 15.7263C16.4157 14.1796 17.566 12.9638 19.0141 12.9638C20.4689 12.9638 21.6124 14.1796 21.6124 15.7263C21.6124 15.9637 21.5854 16.1868 21.538 16.4026H22.4312C23.4056 16.4026 24.001 15.7479 24.001 14.6832V11.7912C24.001 10.7841 23.7168 9.92797 22.4582 9.51072L21.0644 9.05749C20.1847 7.94242 18.6487 6.35254 15.8541 6.35254H14.2639C11.4761 6.35254 10.3664 6.6403 8.70181 7.74818L5.97491 9.56827L2.97052 9.95674C1.10295 10.2013 0 11.3452 0 13.0574V14.4818C0 15.7048 0.642824 16.4026 1.76607 16.4026ZM5.34559 17.6471C6.36056 17.6471 7.15901 16.7983 7.15901 15.7263C7.15901 14.6544 6.35381 13.7984 5.34559 13.7984C4.34414 13.7984 3.53892 14.6544 3.53892 15.7263C3.53892 16.7911 4.34414 17.6471 5.34559 17.6471ZM19.0141 17.6471C20.0223 17.6471 20.8275 16.7911 20.8275 15.7263C20.8275 14.6544 20.0223 13.7984 19.0141 13.7984C18.0194 13.7984 17.2074 14.6617 17.2074 15.7263C17.2074 16.7911 18.0126 17.6471 19.0141 17.6471Z" fill="url(#paint0_linear_208_2633)"></path>
</g>
<defs>
<linearGradient id="paint0_linear_208_2633" x1="0.480021" y1="3.04205" x2="28.949" y2="4.4677" gradientUnits="userSpaceOnUse">
<stop stop-color="#41668B"></stop>
<stop offset="1" stop-color="#A5BDD5"></stop>
</linearGradient>
<clipPath id="clip0_208_2633">
<rect width="24" height="24" fill="white"></rect>
</clipPath>
</defs>
</svg>