<svg width="24" height="24" viewBox="0 0 24 24" fill="none" xmlns="http://www.w3.org/2000/svg">
<path d="M4.79961 20.3998V11.9748L3.19961 13.1998L2.09961 11.7498L4.79961 9.6998V6.5998H6.59961V8.3248L11.9996 4.1998L21.8996 11.7498L20.7996 13.1998L19.1996 11.9748V20.3998H12.8996V14.9998H11.0996V20.3998H4.79961ZM4.79961 5.3998C4.79961 4.5998 5.04961 3.9498 5.54961 3.4498C6.04961 2.9498 6.69961 2.6998 7.49961 2.6998C7.78294 2.6998 8.00378 2.62064 8.16211 2.4623C8.32044 2.30397 8.39961 2.08314 8.39961 1.7998H10.1996C10.1996 2.5998 9.94961 3.2498 9.44961 3.7498C8.94961 4.2498 8.29961 4.4998 7.49961 4.4998C7.21628 4.4998 6.99544 4.57897 6.83711 4.7373C6.67878 4.89564 6.59961 5.11647 6.59961 5.3998H4.79961Z" fill="url(#paint0_linear_208_2588)"></path>
<defs>
<linearGradient id="paint0_linear_208_2588" x1="2.49561" y1="-3.65192" x2="26.0256" y2="-3.06164" gradientUnits="userSpaceOnUse">
<stop stop-color="#41668B"></stop>
<stop offset="1" stop-color="#A5BDD5"></stop>
</linearGradient>
</defs>
</svg>